<?xml version="1.0" encoding="UTF-8"?>
<!DOCTYPE svg PUBLIC "-//W3C//DTD SVG 1.1//EN" "http://www.w3.org/Graphics/SVG/1.1/DTD/svg11.dtd">
<svg xmlns="http://www.w3.org/2000/svg" version="1.1" width="1000px" height="1000px" style="shape-rendering:geometricPrecision; text-rendering:geometricPrecision; image-rendering:optimizeQuality; fill-rule:evenodd; clip-rule:evenodd" xmlns:xlink="http://www.w3.org/1999/xlink">
<g><path style="opacity:1" fill="#f94b2a" d="M 999.5,255.5 C 999.5,417.833 999.5,580.167 999.5,742.5C 990.127,803.709 957.127,846.876 900.5,872C 889.806,876.09 878.806,879.09 867.5,881C 836.863,882.436 806.196,882.936 775.5,882.5C 775.5,831.5 775.5,780.5 775.5,729.5C 669.5,729.5 563.5,729.5 457.5,729.5C 457.5,780.5 457.5,831.5 457.5,882.5C 429.498,882.667 401.498,882.5 373.5,882C 315.191,873.614 273.024,843.114 247,790.5C 241.179,777.371 237.179,763.704 235,749.5C 233.534,693.859 233.034,638.192 233.5,582.5C 401.5,582.5 569.5,582.5 737.5,582.5C 737.5,492.5 737.5,402.5 737.5,312.5C 715.833,312.5 694.167,312.5 672.5,312.5C 672.5,324.833 672.5,337.167 672.5,349.5C 660.5,349.5 648.5,349.5 636.5,349.5C 636.5,337.167 636.5,324.833 636.5,312.5C 618.167,312.5 599.833,312.5 581.5,312.5C 581.5,333.5 581.5,354.5 581.5,375.5C 569.5,375.5 557.5,375.5 545.5,375.5C 545.5,354.5 545.5,333.5 545.5,312.5C 528.833,312.5 512.167,312.5 495.5,312.5C 495.5,363.167 495.5,413.833 495.5,464.5C 410.164,464.167 324.831,464.5 239.5,465.5C 247.915,478.33 254.748,491.997 260,506.5C 260.667,510.167 260.667,513.833 260,517.5C 243.385,560.45 216.552,595.617 179.5,623C 142.048,645.559 104.048,646.226 65.5,625C 28.6607,602.167 6.66068,569.334 -0.5,526.5C -0.5,515.833 -0.5,505.167 -0.5,494.5C 8.48215,446.345 35.4822,412.512 80.5,393C 119.525,377.281 155.525,382.281 188.5,408C 205.431,422.263 220.264,438.43 233,456.5C 233.333,389.833 233.667,323.167 234,256.5C 242.396,197.174 273.563,154.674 327.5,129C 342.252,122.812 357.585,118.812 373.5,117C 535.833,116.333 698.167,116.333 860.5,117C 929.464,127.963 974.297,166.796 995,233.5C 996.625,240.947 998.125,248.28 999.5,255.5 Z M 116.5,432.5 C 132.001,431.723 146.001,435.89 158.5,445C 179.998,464.345 197.665,486.678 211.5,512C 201.703,532.937 188.703,551.603 172.5,568C 160.499,579.002 146.499,586.335 130.5,590C 89.0609,592.027 62.2276,573.193 50,533.5C 42.6604,493.361 56.1604,462.528 90.5,441C 98.8825,436.913 107.549,434.08 116.5,432.5 Z"/></g>
</svg>
